# xmcd
#
# Track frame offsets:
#	150
#	13342
#	27392
#	36965
#	49472
#	65405
#	83395
#	92850
#	105372
#	119757
#	132092
#	149637
#
# Disc length: 2202
#
# Revision: 3
# Processed by: cddbd v1.5.1PL0 Copyright (c) Steve Scherf et al.
# Submitted via: EasyCDDAExtractor 5.1.0
# Normalized: r2:TDELIM( - )
#
DISCID=aa08980c
DTITLE=Various Artist - Bluegrass Borders Style
DYEAR=2003
DGENRE=Bluegrass
TTITLE0=Alison Krauss - Too Late to Cry
TTITLE1=The Three Pickers: Earl Scruggs, Doc Watson, and Ricky Skaggs - Don't Let Your Deal Go Down
TTITLE2=The Lynn Morris Band - Love Grown Cold
TTITLE3=The Del McCoury band - The Hard Cold Facts
TTITLE4=Rhonda Vincent - You Can't Take It With You When You Go
TTITLE5=Jeannie Kendall - Serious Doubt
TTITLE6=Ricky Skaggs - Lost and I'll Never Find the Way
TTITLE7=Alecia Nugent - I'll Stay Around
TTITLE8=Ron Block - Faraway Land
TTITLE9=The Cox Family - Pardon Me
TTITLE10=Open Road - Petals in My Pocket
TTITLE11=Tony Trischka Band - Earl's Breakdown
EXTD=
EXTT0=
EXTT1=
EXTT2=
EXTT3=
EXTT4=
EXTT5=
EXTT6=
EXTT7=
EXTT8=
EXTT9=
EXTT10=
EXTT11=
PLAYORDER=
